# Blender 4.2.9 LTS
# www.blender.org
mtllib flammable_box_incorrect_2.mtl
o Cube
v 1.000000 1.353515 -1.980201
v 1.000000 -1.353515 -1.980201
v 1.000000 1.353515 1.980201
v 1.000000 -1.353515 1.980201
v -1.000000 1.353515 -1.980201
v -1.000000 -1.353515 -1.980201
v -1.000000 1.353515 1.980201
v -1.000000 -1.353515 1.980201
vn -0.0000 1.0000 -0.0000
vn -0.0000 -0.0000 1.0000
vn -1.0000 -0.0000 -0.0000
vn -0.0000 -1.0000 -0.0000
vn 1.0000 -0.0000 -0.0000
vn -0.0000 -0.0000 -1.0000
vt 0.625000 0.500000
vt 0.875000 0.500000
vt 0.875000 0.750000
vt 0.625000 0.750000
vt 0.375000 0.750000
vt 0.625000 1.000000
vt 0.375000 1.000000
vt 0.375000 0.000000
vt 0.625000 0.000000
vt 0.625000 0.250000
vt 0.375000 0.250000
vt 0.125000 0.500000
vt 0.375000 0.500000
vt 0.125000 0.750000
s 0
usemtl Material
f 1/1/1 5/2/1 7/3/1 3/4/1
f 4/5/2 3/4/2 7/6/2 8/7/2
f 8/8/3 7/9/3 5/10/3 6/11/3
f 6/12/4 2/13/4 4/5/4 8/14/4
f 2/13/5 1/1/5 3/4/5 4/5/5
f 6/11/6 5/10/6 1/1/6 2/13/6
o image32
v 1.015949 -0.604718 0.592581
v 1.015949 -0.604718 -0.616855
v 1.015949 0.604718 0.592581
v 1.015949 0.604718 -0.616855
vn 1.0000 -0.0000 -0.0000
vt 0.000000 0.000000
vt 1.000000 0.000000
vt 1.000000 1.000000
vt 0.000000 1.000000
s 0
usemtl image32
f 9/15/7 10/16/7 12/17/7 11/18/7
o image53
v 1.004893 0.002051 -0.634649
v 1.004893 -0.592652 -1.229352
v 1.004893 0.592652 -1.225250
v 1.004893 -0.002051 -1.819953
vn 1.0000 -0.0000 -0.0000
vt 0.000000 0.000000
vt 1.000000 0.000000
vt 1.000000 1.000000
vt 0.000000 1.000000
s 0
usemtl image53
f 13/19/8 14/20/8 16/21/8 15/22/8
o Screenshot_2025-04-02_141724
v 1.000855 -0.002777 1.846281
v 1.000855 -0.002777 0.833604
v 1.000855 1.249744 1.846281
v 1.000855 1.249744 0.833604
vn 1.0000 -0.0000 -0.0000
vt 0.000000 0.000000
vt 1.000000 0.000000
vt 1.000000 1.000000
vt 0.000000 1.000000
s 0
usemtl Screenshot_2025-04-02_141724
f 17/23/9 18/24/9 20/25/9 19/26/9
o text1
v 1.011793 0.731386 0.639756
v 1.011793 0.731386 -0.639756
v 1.011793 1.215632 0.639756
v 1.011793 1.215632 -0.639756
vn 1.0000 -0.0000 -0.0000
vt 0.000000 0.000000
vt 1.000000 0.000000
vt 1.000000 1.000000
vt 0.000000 1.000000
s 0
usemtl text1
f 21/27/10 22/28/10 24/29/10 23/30/10
o image29
v 1.000855 -1.122518 1.770868
v 1.000855 -1.122518 0.176150
v 1.000855 -0.638549 1.770868
v 1.000855 -0.638549 0.176150
vn 1.0000 -0.0000 -0.0000
vt 0.000000 0.000000
vt 1.000000 0.000000
vt 1.000000 1.000000
vt 0.000000 1.000000
s 0
usemtl image29
f 25/31/11 26/32/11 28/33/11 27/34/11
o image30
v -0.209169 0.254743 -1.990771
v -0.906538 0.254743 -1.990771
v -0.209169 1.254743 -1.990771
v -0.906538 1.254743 -1.990771
vn -0.0000 -0.0000 -1.0000
vt 0.000000 0.000000
vt 1.000000 0.000000
vt 1.000000 1.000000
vt 0.000000 1.000000
s 0
usemtl image30
f 29/35/12 30/36/12 32/37/12 31/38/12
o image30.001
v -0.209169 0.254743 -1.990771
v -0.906538 0.254743 -1.990771
v -0.209169 1.254743 -1.990771
v -0.906538 1.254743 -1.990771
vn -0.0000 -0.0000 -1.0000
vt 0.000000 0.000000
vt 1.000000 0.000000
vt 1.000000 1.000000
vt 0.000000 1.000000
s 0
usemtl image30
f 33/39/13 34/40/13 36/41/13 35/42/13
o Screenshot_2025-04-02_141838
v 0.204211 0.254743 1.990771
v 0.900558 0.254743 1.990771
v 0.204211 1.254743 1.990771
v 0.900558 1.254743 1.990771
vn -0.0000 -0.0000 1.0000
vt 0.000000 0.000000
vt 1.000000 0.000000
vt 1.000000 1.000000
vt 0.000000 1.000000
s 0
usemtl Screenshot_2025-04-02_141838
f 37/43/14 38/44/14 40/45/14 39/46/14
o Screenshot_2025-04-01_151141
v -0.890763 0.232866 1.985302
v 0.004760 0.232866 1.985302
v -0.890763 1.232866 1.985302
v 0.004760 1.232866 1.985302
vn -0.0000 -0.0000 1.0000
vt 0.000000 0.000000
vt 1.000000 0.000000
vt 1.000000 1.000000
vt 0.000000 1.000000
s 0
usemtl Screenshot_2025-04-01_151141
f 41/47/15 42/48/15 44/49/15 43/50/15
